<svg width="32" height="32" viewBox="0 0 32 32" fill="none" xmlns="http://www.w3.org/2000/svg">
    <path d="M28.2313 6.2325L23.7687 1.7675C22.7937 0.795625 20.875 0 19.5 0H4.5C3.125 0 2 1.125 2 2.5V29.5C2 30.875 3.125 32 4.5 32H27.5C28.875 32 30 30.875 30 29.5V10.5C30 9.125 29.2063 7.20625 28.2313 6.2325Z" fill="#533483"></path>
    <path d="M28 29.5C28 29.7687 27.7687 30 27.5 30H4.5C4.22875 30 4 29.7687 4 29.5V2.5C4 2.22875 4.22875 2 4.5 2H19.5C19.65 2 19.8188 2.01875 20 2.05312V10.0031H27.9438C27.9813 10.1844 28 10.3531 28 10.5031V29.5031V29.5Z" fill="white"></path>
    <path d="M25.9062 19.8C25.775 19.8812 25.4 19.9312 25.1625 19.9312C24.3875 19.9312 23.4375 19.575 22.0937 19C22.6125 18.9625 23.0812 18.9437 23.5062 18.9437C24.2812 18.9437 24.5062 18.9437 25.2687 19.1375C26.025 19.325 26.0312 19.7187 25.9062 19.8ZM12.4625 19.9187C12.7625 19.3937 13.0687 18.8375 13.3812 18.2437C14.1437 16.8 14.6312 15.6625 14.9875 14.7312C15.7062 16.0375 16.6 17.1437 17.6437 18.0312C17.775 18.1437 17.9125 18.25 18.0625 18.3625C15.9312 18.7875 14.0875 19.3 12.4625 19.9187ZM14.95 6.2375C15.375 6.2375 15.6187 7.30375 15.6375 8.31C15.6562 9.31 15.425 10.01 15.1312 10.535C14.8875 9.76 14.775 8.5475 14.775 7.75375C14.775 7.75375 14.7562 6.2375 14.95 6.2375ZM6.61247 25.4375C6.85622 24.7812 7.80622 23.4812 9.21247 22.325C9.29997 22.2562 9.51872 22.05 9.71872 21.8625C8.24997 24.2125 7.26247 25.1437 6.61247 25.4375ZM26.3125 18.4187C25.8875 18 24.9375 17.7812 23.5 17.7625C22.525 17.75 21.3562 17.8375 20.1187 18.0062C19.5687 17.6875 19 17.3437 18.55 16.925C17.35 15.8 16.35 14.2437 15.725 12.5312C15.7625 12.3687 15.8 12.2312 15.8312 12.0875C15.8312 12.0875 16.5062 8.24375 16.325 6.94375C16.3 6.7625 16.2875 6.7125 16.2375 6.575L16.1812 6.41875C16 5.99625 15.6375 5.54625 15.0687 5.57062L14.7375 5.56H14.7312C14.1 5.56 13.5812 5.88312 13.45 6.3625C13.0375 7.88125 13.4625 10.1437 14.2312 13.075L14.0312 13.5562C13.4812 14.8937 12.7937 16.2437 12.1875 17.4312L12.1062 17.5875C11.4687 18.8375 10.8875 19.9 10.3625 20.8L9.81872 21.0875C9.78122 21.1125 8.84997 21.6 8.63122 21.7312C6.78122 22.8375 5.55122 24.0937 5.34747 25.0937C5.28247 25.4062 5.33122 25.8125 5.6606 26.0062L6.1856 26.2687C6.41247 26.3812 6.65622 26.4375 6.89997 26.4375C8.21872 26.4375 9.74997 24.8 11.8562 21.1187C14.2937 20.325 17.0687 19.6625 19.5 19.3C21.35 20.3437 23.625 21.0687 25.0625 21.0687C25.3187 21.0687 25.5375 21.0437 25.7187 20.9937C25.9937 20.925 26.225 20.7687 26.3687 20.55C26.6437 20.1312 26.7062 19.5562 26.625 18.9625C26.6062 18.7875 26.4625 18.5687 26.3125 18.4187Z" fill="#533483"></path>
    <path d="M26.8188 7.64372C26.9188 7.74372 27.0125 7.86247 27.1063 7.99997H22V2.89185C22.1375 2.98685 22.2563 3.08435 22.3563 3.18185L26.8188 7.64372Z" fill="white"></path>
</svg>